<svg xmlns="http://www.w3.org/2000/svg" viewBox="0 0 32 32" role="img" aria-label="CypherShip Labs"><rect width="32" height="32" rx="7" fill="#05050C"/><svg x="2" y="2" width="28" height="28" viewBox="177 49 900 900"><path fill="#5FC0D6" d="M524.47 347 401 512 401 565 226 740 208 836 538 642 471 592Z"/><path fill="#5FC0D6" d="M729.53 347 853 512 853 565 1028 740 1046 836 716 642 783 592Z"/><path fill="#E3B168" d="M627 162 553 285 486 592 553 642 553 516 612 482Z"/><path fill="#E3B168" d="M627 162 701 285 768 592 701 642 701 516 642 482Z"/><path fill="#E3B168" d="M627 526 681 558 681 792 627 826 573 792 573 558Z"/><path fill="#E3B168" d="M553 659 459.44 714 553 826Z"/><path fill="#E3B168" d="M701 659 794.56 714 701 826Z"/></svg></svg>
